%TF.GenerationSoftware,KiCad,Pcbnew,8.0.3*%
%TF.CreationDate,2024-07-17T21:27:30+08:00*%
%TF.ProjectId,prp_circuit_board,7072705f-6369-4726-9375-69745f626f61,rev?*%
%TF.SameCoordinates,Original*%
%TF.FileFunction,Profile,NP*%
%FSLAX46Y46*%
G04 Gerber Fmt 4.6, Leading zero omitted, Abs format (unit mm)*
G04 Created by KiCad (PCBNEW 8.0.3) date 2024-07-17 21:27:30*
%MOMM*%
%LPD*%
G01*
G04 APERTURE LIST*
%TA.AperFunction,Profile*%
%ADD10C,0.050000*%
%TD*%
%TA.AperFunction,ComponentPad*%
%ADD11R,1.700000X1.700000*%
%TD*%
%TA.AperFunction,ComponentPad*%
%ADD12O,1.700000X1.700000*%
%TD*%
%TA.AperFunction,ComponentPad*%
%ADD13C,1.358000*%
%TD*%
%TA.AperFunction,ComponentPad*%
%ADD14R,1.358000X1.358000*%
%TD*%
%TA.AperFunction,ComponentPad*%
%ADD15R,1.600000X1.600000*%
%TD*%
%TA.AperFunction,ComponentPad*%
%ADD16O,1.600000X1.600000*%
%TD*%
%TA.AperFunction,Conductor*%
%ADD17C,0.200000*%
%TD*%
G04 APERTURE END LIST*
D10*
X170000000Y-40000000D02*
X20000000Y-40000000D01*
X20000000Y-150000000D02*
X170000000Y-150000000D01*
X170000000Y-150000000D02*
X170000000Y-40000000D01*
X20000000Y-40000000D02*
X20000000Y-150000000D01*
D11*
%TO.P,VALVE1,1,Pin_1*%
%TO.N,Net-(VALVE1-Pin_1)*%
X105460000Y-143082826D03*
D12*
%TO.P,VALVE1,2,Pin_2*%
%TO.N,Net-(VALVE1-Pin_2)*%
X108000000Y-143082826D03*
%TO.P,VALVE1,3,Pin_3*%
%TO.N,GND*%
X110540000Y-143082826D03*
%TO.P,VALVE1,4,Pin_4*%
%TO.N,+5V*%
X113080000Y-143082826D03*
%TD*%
D11*
%TO.P,Receiver1,1,Pin_1*%
%TO.N,JOYSTICK_RIGHT_X*%
X152000000Y-74140000D03*
D12*
%TO.P,Receiver1,2,Pin_2*%
%TO.N,JOYSTICK_RIGHT_Y*%
X152000000Y-76680000D03*
%TO.P,Receiver1,3,Pin_3*%
%TO.N,JOYSTICK_LEFT_Y*%
X152000000Y-79220000D03*
%TO.P,Receiver1,4,Pin_4*%
%TO.N,JOYSTICK_LEFT_X*%
X152000000Y-81760000D03*
%TO.P,Receiver1,5,Pin_5*%
%TO.N,CH6_SIGNAL*%
X152000000Y-84300000D03*
%TO.P,Receiver1,6,Pin_6*%
%TO.N,PUMP_SIGNAL*%
X152000000Y-86840000D03*
%TO.P,Receiver1,7,Pin_7*%
%TO.N,ACTUATOR_SIGNAL*%
X152000000Y-89380000D03*
%TO.P,Receiver1,8,Pin_8*%
%TO.N,GND*%
X152000000Y-91920000D03*
%TO.P,Receiver1,9,Pin_9*%
%TO.N,unconnected-(Receiver1-Pin_9-Pad9)*%
X152000000Y-94460000D03*
%TO.P,Receiver1,10,Pin_10*%
%TO.N,+5V*%
X152000000Y-97000000D03*
%TD*%
D11*
%TO.P,L_PROP1,1,Pin_1*%
%TO.N,GND*%
X34000000Y-108540000D03*
D12*
%TO.P,L_PROP1,2,Pin_2*%
%TO.N,+5V*%
X34000000Y-106000000D03*
%TO.P,L_PROP1,3,Pin_3*%
%TO.N,Net-(A1-D10)*%
X34000000Y-103460000D03*
%TD*%
D13*
%TO.P,A2,VIN,VIN*%
%TO.N,unconnected-(A2-PadVIN)*%
X97870000Y-84740000D03*
%TO.P,A2,SDA,SDA*%
%TO.N,unconnected-(A2-PadSDA)*%
X146130000Y-60356000D03*
%TO.P,A2,SCL,SCL*%
%TO.N,unconnected-(A2-PadSCL)*%
X146130000Y-57816000D03*
%TO.P,A2,RESET,RESET*%
%TO.N,unconnected-(A2-PadRESET)*%
X97870000Y-72040000D03*
D14*
%TO.P,A2,NC,NC*%
%TO.N,unconnected-(A2-PadNC)*%
X97870000Y-66960000D03*
D13*
%TO.P,A2,IOREF,IOREF*%
%TO.N,unconnected-(A2-PadIOREF)*%
X97870000Y-69500000D03*
%TO.P,A2,GND5,GND5*%
%TO.N,GND*%
X102950000Y-135540000D03*
%TO.P,A2,GND4,GND4*%
X102950000Y-133000000D03*
%TO.P,A2,GND3,GND3*%
X146130000Y-65436000D03*
%TO.P,A2,GND2,GND2*%
X97870000Y-82200000D03*
%TO.P,A2,GND1,GND1*%
X97870000Y-79660000D03*
%TO.P,A2,AREF,AREF*%
%TO.N,unconnected-(A2-PadAREF)*%
X146130000Y-62896000D03*
%TO.P,A2,AD15,AD15*%
%TO.N,unconnected-(A2-PadAD15)*%
X97870000Y-130206000D03*
%TO.P,A2,AD14,AD14*%
%TO.N,unconnected-(A2-PadAD14)*%
X97870000Y-127666000D03*
%TO.P,A2,AD13,AD13*%
%TO.N,unconnected-(A2-PadAD13)*%
X97870000Y-125380000D03*
%TO.P,A2,AD12,AD12*%
%TO.N,unconnected-(A2-PadAD12)*%
X97870000Y-122840000D03*
%TO.P,A2,AD11,AD11*%
%TO.N,unconnected-(A2-PadAD11)*%
X97870000Y-120300000D03*
%TO.P,A2,AD10,AD10*%
%TO.N,unconnected-(A2-PadAD10)*%
X97870000Y-117760000D03*
%TO.P,A2,AD9,AD9*%
%TO.N,unconnected-(A2-PadAD9)*%
X97870000Y-115220000D03*
%TO.P,A2,AD8,AD8*%
%TO.N,unconnected-(A2-PadAD8)*%
X97870000Y-112680000D03*
%TO.P,A2,AD7,AD7*%
%TO.N,unconnected-(A2-PadAD7)*%
X97870000Y-107600000D03*
%TO.P,A2,AD6,AD6*%
%TO.N,unconnected-(A2-PadAD6)*%
X97870000Y-105060000D03*
%TO.P,A2,AD5,AD5*%
%TO.N,unconnected-(A2-PadAD5)*%
X97870000Y-102520000D03*
%TO.P,A2,AD4,AD4*%
%TO.N,unconnected-(A2-PadAD4)*%
X97870000Y-99980000D03*
%TO.P,A2,AD3,AD3*%
%TO.N,unconnected-(A2-PadAD3)*%
X97870000Y-97440000D03*
%TO.P,A2,AD2,AD2*%
%TO.N,unconnected-(A2-PadAD2)*%
X97870000Y-94900000D03*
%TO.P,A2,AD1,AD1*%
%TO.N,unconnected-(A2-PadAD1)*%
X97870000Y-92360000D03*
%TO.P,A2,AD0,AD0*%
%TO.N,unconnected-(A2-PadAD0)*%
X97870000Y-89820000D03*
%TO.P,A2,53,53*%
%TO.N,Net-(VALVE1-Pin_1)*%
X105490000Y-135540000D03*
%TO.P,A2,52,52*%
%TO.N,unconnected-(A2-Pad52)*%
X105490000Y-133000000D03*
%TO.P,A2,51,51*%
%TO.N,Net-(VALVE1-Pin_2)*%
X108030000Y-135540000D03*
%TO.P,A2,50,50*%
%TO.N,unconnected-(A2-Pad50)*%
X108030000Y-133000000D03*
%TO.P,A2,49,49*%
%TO.N,unconnected-(A2-Pad49)*%
X110570000Y-135540000D03*
%TO.P,A2,48,48*%
%TO.N,unconnected-(A2-Pad48)*%
X110570000Y-133000000D03*
%TO.P,A2,47,47*%
%TO.N,unconnected-(A2-Pad47)*%
X113110000Y-135540000D03*
%TO.P,A2,46,46*%
%TO.N,unconnected-(A2-Pad46)*%
X113110000Y-133000000D03*
%TO.P,A2,45,45*%
%TO.N,unconnected-(A2-Pad45)*%
X115650000Y-135540000D03*
%TO.P,A2,44,44*%
%TO.N,unconnected-(A2-Pad44)*%
X115650000Y-133000000D03*
%TO.P,A2,43,43*%
%TO.N,Net-(ACTUATOR1-Pin_1)*%
X118190000Y-135540000D03*
%TO.P,A2,42,42*%
%TO.N,unconnected-(A2-Pad42)*%
X118190000Y-133000000D03*
%TO.P,A2,41,41*%
%TO.N,Net-(ACTUATOR1-Pin_2)*%
X120730000Y-135540000D03*
%TO.P,A2,40,40*%
%TO.N,unconnected-(A2-Pad40)*%
X120730000Y-133000000D03*
%TO.P,A2,39,39*%
%TO.N,unconnected-(A2-Pad39)*%
X123270000Y-135540000D03*
%TO.P,A2,38,38*%
%TO.N,unconnected-(A2-Pad38)*%
X123270000Y-133000000D03*
%TO.P,A2,37,37*%
%TO.N,unconnected-(A2-Pad37)*%
X125810000Y-135540000D03*
%TO.P,A2,36,36*%
%TO.N,unconnected-(A2-Pad36)*%
X125810000Y-133000000D03*
%TO.P,A2,35,35*%
%TO.N,unconnected-(A2-Pad35)*%
X128350000Y-135540000D03*
%TO.P,A2,34,34*%
%TO.N,unconnected-(A2-Pad34)*%
X128350000Y-133000000D03*
%TO.P,A2,33,33*%
%TO.N,Net-(PUMPS1-Pin_1)*%
X130890000Y-135540000D03*
%TO.P,A2,32,32*%
%TO.N,unconnected-(A2-Pad32)*%
X130890000Y-133000000D03*
%TO.P,A2,31,31*%
%TO.N,Net-(PUMPS1-Pin_2)*%
X133430000Y-135540000D03*
%TO.P,A2,30,30*%
%TO.N,unconnected-(A2-Pad30)*%
X133430000Y-133000000D03*
%TO.P,A2,29,29*%
%TO.N,unconnected-(A2-Pad29)*%
X135970000Y-135540000D03*
%TO.P,A2,28,28*%
%TO.N,unconnected-(A2-Pad28)*%
X135970000Y-133000000D03*
%TO.P,A2,27,27*%
%TO.N,unconnected-(A2-Pad27)*%
X138510000Y-135540000D03*
%TO.P,A2,26,26*%
%TO.N,unconnected-(A2-Pad26)*%
X138510000Y-133000000D03*
%TO.P,A2,25,25*%
%TO.N,unconnected-(A2-Pad25)*%
X141050000Y-135540000D03*
%TO.P,A2,24,24*%
%TO.N,unconnected-(A2-Pad24)*%
X141050000Y-133000000D03*
%TO.P,A2,23,23*%
%TO.N,unconnected-(A2-Pad23)*%
X143590000Y-135540000D03*
%TO.P,A2,22,22*%
%TO.N,unconnected-(A2-Pad22)*%
X143590000Y-133000000D03*
%TO.P,A2,21,21*%
%TO.N,unconnected-(A2-Pad21)*%
X146130000Y-125380000D03*
%TO.P,A2,20,20*%
%TO.N,unconnected-(A2-Pad20)*%
X146130000Y-122840000D03*
%TO.P,A2,19,19*%
%TO.N,unconnected-(A2-Pad19)*%
X146130000Y-120300000D03*
%TO.P,A2,18,18*%
%TO.N,unconnected-(A2-Pad18)*%
X146130000Y-117760000D03*
%TO.P,A2,17,17*%
%TO.N,unconnected-(A2-Pad17)*%
X146130000Y-115220000D03*
%TO.P,A2,16,16*%
%TO.N,unconnected-(A2-Pad16)*%
X146130000Y-112680000D03*
%TO.P,A2,15,15*%
%TO.N,unconnected-(A2-Pad15)*%
X146130000Y-110140000D03*
%TO.P,A2,14,14*%
%TO.N,unconnected-(A2-Pad14)*%
X146130000Y-107600000D03*
%TO.P,A2,13,13*%
%TO.N,unconnected-(A2-Pad13)*%
X146130000Y-67976000D03*
%TO.P,A2,12,12*%
%TO.N,unconnected-(A2-Pad12)*%
X146130000Y-70516000D03*
%TO.P,A2,11,11*%
%TO.N,JOYSTICK_RIGHT_X*%
X146130000Y-73056000D03*
%TO.P,A2,10,10*%
%TO.N,JOYSTICK_RIGHT_Y*%
X146130000Y-75596000D03*
%TO.P,A2,9,9*%
%TO.N,JOYSTICK_LEFT_Y*%
X146130000Y-78136000D03*
%TO.P,A2,8,8*%
%TO.N,JOYSTICK_LEFT_X*%
X146130000Y-80676000D03*
%TO.P,A2,7,7*%
%TO.N,CH6_SIGNAL*%
X146130000Y-84740000D03*
%TO.P,A2,6,6*%
%TO.N,PUMP_SIGNAL*%
X146130000Y-87280000D03*
%TO.P,A2,5V_3,+5V_3*%
%TO.N,+5V*%
X146130000Y-135540000D03*
%TO.P,A2,5V_2,+5V_2*%
X146130000Y-133000000D03*
%TO.P,A2,5V_1,+5V_1*%
X97870000Y-77120000D03*
%TO.P,A2,5,5*%
%TO.N,ACTUATOR_SIGNAL*%
X146130000Y-89820000D03*
%TO.P,A2,4,4*%
%TO.N,unconnected-(A2-Pad4)*%
X146130000Y-92360000D03*
%TO.P,A2,3V3,+3V3*%
%TO.N,unconnected-(A2-+3V3-Pad3V3)*%
X97870000Y-74580000D03*
%TO.P,A2,3,3*%
%TO.N,unconnected-(A2-Pad3)*%
X146130000Y-94900000D03*
%TO.P,A2,2,2*%
%TO.N,unconnected-(A2-Pad2)*%
X146130000Y-97440000D03*
%TO.P,A2,1,1/TX*%
%TO.N,Net-(A1-D0{slash}RX)*%
X146130000Y-99980000D03*
%TO.P,A2,0,0/RX*%
%TO.N,unconnected-(A2-0{slash}RX-Pad0)*%
X146130000Y-102520000D03*
%TD*%
D11*
%TO.P,R_PROP1,1,Pin_1*%
%TO.N,GND*%
X34000000Y-93460000D03*
D12*
%TO.P,R_PROP1,2,Pin_2*%
%TO.N,+5V*%
X34000000Y-96000000D03*
%TO.P,R_PROP1,3,Pin_3*%
%TO.N,Net-(A1-D11)*%
X34000000Y-98540000D03*
%TD*%
D11*
%TO.P,L_TRACK1,1,Pin_1*%
%TO.N,Net-(A1-D2)*%
X34000000Y-131540000D03*
D12*
%TO.P,L_TRACK1,2,Pin_2*%
%TO.N,Net-(A1-D3)*%
X34000000Y-129000000D03*
%TD*%
D15*
%TO.P,A1,1,NC*%
%TO.N,unconnected-(A1-NC-Pad1)*%
X88130000Y-100825000D03*
D16*
%TO.P,A1,2,IOREF*%
%TO.N,unconnected-(A1-IOREF-Pad2)*%
X88130000Y-103365000D03*
%TO.P,A1,3,~{RESET}*%
%TO.N,unconnected-(A1-~{RESET}-Pad3)*%
X88130000Y-105905000D03*
%TO.P,A1,4,3V3*%
%TO.N,unconnected-(A1-3V3-Pad4)*%
X88130000Y-108445000D03*
%TO.P,A1,5,+5V*%
%TO.N,+5V*%
X88130000Y-110985000D03*
%TO.P,A1,6,GND*%
%TO.N,GND*%
X88130000Y-113525000D03*
%TO.P,A1,7,GND*%
%TO.N,unconnected-(A1-GND-Pad7)*%
X88130000Y-116065000D03*
%TO.P,A1,8,VIN*%
%TO.N,unconnected-(A1-VIN-Pad8)*%
X88130000Y-118605000D03*
%TO.P,A1,9,A0*%
%TO.N,unconnected-(A1-A0-Pad9)*%
X88130000Y-123685000D03*
%TO.P,A1,10,A1*%
%TO.N,unconnected-(A1-A1-Pad10)*%
X88130000Y-126225000D03*
%TO.P,A1,11,A2*%
%TO.N,unconnected-(A1-A2-Pad11)*%
X88130000Y-128765000D03*
%TO.P,A1,12,A3*%
%TO.N,unconnected-(A1-A3-Pad12)*%
X88130000Y-131305000D03*
%TO.P,A1,13,SDA/A4*%
%TO.N,unconnected-(A1-SDA{slash}A4-Pad13)*%
X88130000Y-133845000D03*
%TO.P,A1,14,SCL/A5*%
%TO.N,unconnected-(A1-SCL{slash}A5-Pad14)*%
X88130000Y-136385000D03*
%TO.P,A1,15,D0/RX*%
%TO.N,Net-(A1-D0{slash}RX)*%
X39870000Y-136385000D03*
%TO.P,A1,16,D1/TX*%
%TO.N,unconnected-(A1-D1{slash}TX-Pad16)*%
X39870000Y-133845000D03*
%TO.P,A1,17,D2*%
%TO.N,Net-(A1-D2)*%
X39870000Y-131305000D03*
%TO.P,A1,18,D3*%
%TO.N,Net-(A1-D3)*%
X39870000Y-128765000D03*
%TO.P,A1,19,D4*%
%TO.N,unconnected-(A1-D4-Pad19)*%
X39870000Y-126225000D03*
%TO.P,A1,20,D5*%
%TO.N,unconnected-(A1-D5-Pad20)*%
X39870000Y-123685000D03*
%TO.P,A1,21,D6*%
%TO.N,Net-(A1-D6)*%
X39870000Y-121145000D03*
%TO.P,A1,22,D7*%
%TO.N,Net-(A1-D7)*%
X39870000Y-118605000D03*
%TO.P,A1,23,D8*%
%TO.N,unconnected-(A1-D8-Pad23)*%
X39870000Y-114545000D03*
%TO.P,A1,24,D9*%
%TO.N,unconnected-(A1-D9-Pad24)*%
X39870000Y-112005000D03*
%TO.P,A1,25,D10*%
%TO.N,Net-(A1-D10)*%
X39870000Y-109465000D03*
%TO.P,A1,26,D11*%
%TO.N,Net-(A1-D11)*%
X39870000Y-106925000D03*
%TO.P,A1,27,D12*%
%TO.N,unconnected-(A1-D12-Pad27)*%
X39870000Y-104385000D03*
%TO.P,A1,28,D13*%
%TO.N,unconnected-(A1-D13-Pad28)*%
X39870000Y-101845000D03*
%TO.P,A1,29,GND*%
%TO.N,GND*%
X39870000Y-99305000D03*
%TO.P,A1,30,AREF*%
%TO.N,unconnected-(A1-AREF-Pad30)*%
X39870000Y-96765000D03*
%TO.P,A1,31,SDA/A4*%
%TO.N,unconnected-(A1-SDA{slash}A4-Pad31)*%
X39870000Y-94225000D03*
%TO.P,A1,32,SCL/A5*%
%TO.N,unconnected-(A1-SCL{slash}A5-Pad32)*%
X39870000Y-91685000D03*
%TD*%
D11*
%TO.P,R_TRACK1,1,Pin_1*%
%TO.N,Net-(A1-D7)*%
X34000000Y-118460000D03*
D12*
%TO.P,R_TRACK1,2,Pin_2*%
%TO.N,Net-(A1-D6)*%
X34000000Y-121000000D03*
%TD*%
D11*
%TO.P,PUMPS1,1,Pin_1*%
%TO.N,Net-(PUMPS1-Pin_1)*%
X131200000Y-142975000D03*
D12*
%TO.P,PUMPS1,2,Pin_2*%
%TO.N,Net-(PUMPS1-Pin_2)*%
X133740000Y-142975000D03*
%TO.P,PUMPS1,3,Pin_3*%
%TO.N,GND*%
X136280000Y-142975000D03*
%TO.P,PUMPS1,4,Pin_4*%
%TO.N,+5V*%
X138820000Y-142975000D03*
%TD*%
D11*
%TO.P,ACTUATOR1,1,Pin_1*%
%TO.N,Net-(ACTUATOR1-Pin_1)*%
X118460000Y-143000000D03*
D12*
%TO.P,ACTUATOR1,2,Pin_2*%
%TO.N,Net-(ACTUATOR1-Pin_2)*%
X121000000Y-143000000D03*
%TD*%
D11*
%TO.P,VALVE1,1,Pin_1*%
%TO.N,Net-(VALVE1-Pin_1)*%
X105460000Y-143082826D03*
D12*
%TO.P,VALVE1,2,Pin_2*%
%TO.N,Net-(VALVE1-Pin_2)*%
X108000000Y-143082826D03*
%TO.P,VALVE1,3,Pin_3*%
%TO.N,GND*%
X110540000Y-143082826D03*
%TO.P,VALVE1,4,Pin_4*%
%TO.N,+5V*%
X113080000Y-143082826D03*
%TD*%
D11*
%TO.P,Receiver1,1,Pin_1*%
%TO.N,JOYSTICK_RIGHT_X*%
X152000000Y-74140000D03*
D12*
%TO.P,Receiver1,2,Pin_2*%
%TO.N,JOYSTICK_RIGHT_Y*%
X152000000Y-76680000D03*
%TO.P,Receiver1,3,Pin_3*%
%TO.N,JOYSTICK_LEFT_Y*%
X152000000Y-79220000D03*
%TO.P,Receiver1,4,Pin_4*%
%TO.N,JOYSTICK_LEFT_X*%
X152000000Y-81760000D03*
%TO.P,Receiver1,5,Pin_5*%
%TO.N,CH6_SIGNAL*%
X152000000Y-84300000D03*
%TO.P,Receiver1,6,Pin_6*%
%TO.N,PUMP_SIGNAL*%
X152000000Y-86840000D03*
%TO.P,Receiver1,7,Pin_7*%
%TO.N,ACTUATOR_SIGNAL*%
X152000000Y-89380000D03*
%TO.P,Receiver1,8,Pin_8*%
%TO.N,GND*%
X152000000Y-91920000D03*
%TO.P,Receiver1,9,Pin_9*%
%TO.N,unconnected-(Receiver1-Pin_9-Pad9)*%
X152000000Y-94460000D03*
%TO.P,Receiver1,10,Pin_10*%
%TO.N,+5V*%
X152000000Y-97000000D03*
%TD*%
D11*
%TO.P,L_PROP1,1,Pin_1*%
%TO.N,GND*%
X34000000Y-108540000D03*
D12*
%TO.P,L_PROP1,2,Pin_2*%
%TO.N,+5V*%
X34000000Y-106000000D03*
%TO.P,L_PROP1,3,Pin_3*%
%TO.N,Net-(A1-D10)*%
X34000000Y-103460000D03*
%TD*%
D13*
%TO.P,A2,VIN,VIN*%
%TO.N,unconnected-(A2-PadVIN)*%
X97870000Y-84740000D03*
%TO.P,A2,SDA,SDA*%
%TO.N,unconnected-(A2-PadSDA)*%
X146130000Y-60356000D03*
%TO.P,A2,SCL,SCL*%
%TO.N,unconnected-(A2-PadSCL)*%
X146130000Y-57816000D03*
%TO.P,A2,RESET,RESET*%
%TO.N,unconnected-(A2-PadRESET)*%
X97870000Y-72040000D03*
D14*
%TO.P,A2,NC,NC*%
%TO.N,unconnected-(A2-PadNC)*%
X97870000Y-66960000D03*
D13*
%TO.P,A2,IOREF,IOREF*%
%TO.N,unconnected-(A2-PadIOREF)*%
X97870000Y-69500000D03*
%TO.P,A2,GND5,GND5*%
%TO.N,GND*%
X102950000Y-135540000D03*
%TO.P,A2,GND4,GND4*%
X102950000Y-133000000D03*
%TO.P,A2,GND3,GND3*%
X146130000Y-65436000D03*
%TO.P,A2,GND2,GND2*%
X97870000Y-82200000D03*
%TO.P,A2,GND1,GND1*%
X97870000Y-79660000D03*
%TO.P,A2,AREF,AREF*%
%TO.N,unconnected-(A2-PadAREF)*%
X146130000Y-62896000D03*
%TO.P,A2,AD15,AD15*%
%TO.N,unconnected-(A2-PadAD15)*%
X97870000Y-130206000D03*
%TO.P,A2,AD14,AD14*%
%TO.N,unconnected-(A2-PadAD14)*%
X97870000Y-127666000D03*
%TO.P,A2,AD13,AD13*%
%TO.N,unconnected-(A2-PadAD13)*%
X97870000Y-125380000D03*
%TO.P,A2,AD12,AD12*%
%TO.N,unconnected-(A2-PadAD12)*%
X97870000Y-122840000D03*
%TO.P,A2,AD11,AD11*%
%TO.N,unconnected-(A2-PadAD11)*%
X97870000Y-120300000D03*
%TO.P,A2,AD10,AD10*%
%TO.N,unconnected-(A2-PadAD10)*%
X97870000Y-117760000D03*
%TO.P,A2,AD9,AD9*%
%TO.N,unconnected-(A2-PadAD9)*%
X97870000Y-115220000D03*
%TO.P,A2,AD8,AD8*%
%TO.N,unconnected-(A2-PadAD8)*%
X97870000Y-112680000D03*
%TO.P,A2,AD7,AD7*%
%TO.N,unconnected-(A2-PadAD7)*%
X97870000Y-107600000D03*
%TO.P,A2,AD6,AD6*%
%TO.N,unconnected-(A2-PadAD6)*%
X97870000Y-105060000D03*
%TO.P,A2,AD5,AD5*%
%TO.N,unconnected-(A2-PadAD5)*%
X97870000Y-102520000D03*
%TO.P,A2,AD4,AD4*%
%TO.N,unconnected-(A2-PadAD4)*%
X97870000Y-99980000D03*
%TO.P,A2,AD3,AD3*%
%TO.N,unconnected-(A2-PadAD3)*%
X97870000Y-97440000D03*
%TO.P,A2,AD2,AD2*%
%TO.N,unconnected-(A2-PadAD2)*%
X97870000Y-94900000D03*
%TO.P,A2,AD1,AD1*%
%TO.N,unconnected-(A2-PadAD1)*%
X97870000Y-92360000D03*
%TO.P,A2,AD0,AD0*%
%TO.N,unconnected-(A2-PadAD0)*%
X97870000Y-89820000D03*
%TO.P,A2,53,53*%
%TO.N,Net-(VALVE1-Pin_1)*%
X105490000Y-135540000D03*
%TO.P,A2,52,52*%
%TO.N,unconnected-(A2-Pad52)*%
X105490000Y-133000000D03*
%TO.P,A2,51,51*%
%TO.N,Net-(VALVE1-Pin_2)*%
X108030000Y-135540000D03*
%TO.P,A2,50,50*%
%TO.N,unconnected-(A2-Pad50)*%
X108030000Y-133000000D03*
%TO.P,A2,49,49*%
%TO.N,unconnected-(A2-Pad49)*%
X110570000Y-135540000D03*
%TO.P,A2,48,48*%
%TO.N,unconnected-(A2-Pad48)*%
X110570000Y-133000000D03*
%TO.P,A2,47,47*%
%TO.N,unconnected-(A2-Pad47)*%
X113110000Y-135540000D03*
%TO.P,A2,46,46*%
%TO.N,unconnected-(A2-Pad46)*%
X113110000Y-133000000D03*
%TO.P,A2,45,45*%
%TO.N,unconnected-(A2-Pad45)*%
X115650000Y-135540000D03*
%TO.P,A2,44,44*%
%TO.N,unconnected-(A2-Pad44)*%
X115650000Y-133000000D03*
%TO.P,A2,43,43*%
%TO.N,Net-(ACTUATOR1-Pin_1)*%
X118190000Y-135540000D03*
%TO.P,A2,42,42*%
%TO.N,unconnected-(A2-Pad42)*%
X118190000Y-133000000D03*
%TO.P,A2,41,41*%
%TO.N,Net-(ACTUATOR1-Pin_2)*%
X120730000Y-135540000D03*
%TO.P,A2,40,40*%
%TO.N,unconnected-(A2-Pad40)*%
X120730000Y-133000000D03*
%TO.P,A2,39,39*%
%TO.N,unconnected-(A2-Pad39)*%
X123270000Y-135540000D03*
%TO.P,A2,38,38*%
%TO.N,unconnected-(A2-Pad38)*%
X123270000Y-133000000D03*
%TO.P,A2,37,37*%
%TO.N,unconnected-(A2-Pad37)*%
X125810000Y-135540000D03*
%TO.P,A2,36,36*%
%TO.N,unconnected-(A2-Pad36)*%
X125810000Y-133000000D03*
%TO.P,A2,35,35*%
%TO.N,unconnected-(A2-Pad35)*%
X128350000Y-135540000D03*
%TO.P,A2,34,34*%
%TO.N,unconnected-(A2-Pad34)*%
X128350000Y-133000000D03*
%TO.P,A2,33,33*%
%TO.N,Net-(PUMPS1-Pin_1)*%
X130890000Y-135540000D03*
%TO.P,A2,32,32*%
%TO.N,unconnected-(A2-Pad32)*%
X130890000Y-133000000D03*
%TO.P,A2,31,31*%
%TO.N,Net-(PUMPS1-Pin_2)*%
X133430000Y-135540000D03*
%TO.P,A2,30,30*%
%TO.N,unconnected-(A2-Pad30)*%
X133430000Y-133000000D03*
%TO.P,A2,29,29*%
%TO.N,unconnected-(A2-Pad29)*%
X135970000Y-135540000D03*
%TO.P,A2,28,28*%
%TO.N,unconnected-(A2-Pad28)*%
X135970000Y-133000000D03*
%TO.P,A2,27,27*%
%TO.N,unconnected-(A2-Pad27)*%
X138510000Y-135540000D03*
%TO.P,A2,26,26*%
%TO.N,unconnected-(A2-Pad26)*%
X138510000Y-133000000D03*
%TO.P,A2,25,25*%
%TO.N,unconnected-(A2-Pad25)*%
X141050000Y-135540000D03*
%TO.P,A2,24,24*%
%TO.N,unconnected-(A2-Pad24)*%
X141050000Y-133000000D03*
%TO.P,A2,23,23*%
%TO.N,unconnected-(A2-Pad23)*%
X143590000Y-135540000D03*
%TO.P,A2,22,22*%
%TO.N,unconnected-(A2-Pad22)*%
X143590000Y-133000000D03*
%TO.P,A2,21,21*%
%TO.N,unconnected-(A2-Pad21)*%
X146130000Y-125380000D03*
%TO.P,A2,20,20*%
%TO.N,unconnected-(A2-Pad20)*%
X146130000Y-122840000D03*
%TO.P,A2,19,19*%
%TO.N,unconnected-(A2-Pad19)*%
X146130000Y-120300000D03*
%TO.P,A2,18,18*%
%TO.N,unconnected-(A2-Pad18)*%
X146130000Y-117760000D03*
%TO.P,A2,17,17*%
%TO.N,unconnected-(A2-Pad17)*%
X146130000Y-115220000D03*
%TO.P,A2,16,16*%
%TO.N,unconnected-(A2-Pad16)*%
X146130000Y-112680000D03*
%TO.P,A2,15,15*%
%TO.N,unconnected-(A2-Pad15)*%
X146130000Y-110140000D03*
%TO.P,A2,14,14*%
%TO.N,unconnected-(A2-Pad14)*%
X146130000Y-107600000D03*
%TO.P,A2,13,13*%
%TO.N,unconnected-(A2-Pad13)*%
X146130000Y-67976000D03*
%TO.P,A2,12,12*%
%TO.N,unconnected-(A2-Pad12)*%
X146130000Y-70516000D03*
%TO.P,A2,11,11*%
%TO.N,JOYSTICK_RIGHT_X*%
X146130000Y-73056000D03*
%TO.P,A2,10,10*%
%TO.N,JOYSTICK_RIGHT_Y*%
X146130000Y-75596000D03*
%TO.P,A2,9,9*%
%TO.N,JOYSTICK_LEFT_Y*%
X146130000Y-78136000D03*
%TO.P,A2,8,8*%
%TO.N,JOYSTICK_LEFT_X*%
X146130000Y-80676000D03*
%TO.P,A2,7,7*%
%TO.N,CH6_SIGNAL*%
X146130000Y-84740000D03*
%TO.P,A2,6,6*%
%TO.N,PUMP_SIGNAL*%
X146130000Y-87280000D03*
%TO.P,A2,5V_3,+5V_3*%
%TO.N,+5V*%
X146130000Y-135540000D03*
%TO.P,A2,5V_2,+5V_2*%
X146130000Y-133000000D03*
%TO.P,A2,5V_1,+5V_1*%
X97870000Y-77120000D03*
%TO.P,A2,5,5*%
%TO.N,ACTUATOR_SIGNAL*%
X146130000Y-89820000D03*
%TO.P,A2,4,4*%
%TO.N,unconnected-(A2-Pad4)*%
X146130000Y-92360000D03*
%TO.P,A2,3V3,+3V3*%
%TO.N,unconnected-(A2-+3V3-Pad3V3)*%
X97870000Y-74580000D03*
%TO.P,A2,3,3*%
%TO.N,unconnected-(A2-Pad3)*%
X146130000Y-94900000D03*
%TO.P,A2,2,2*%
%TO.N,unconnected-(A2-Pad2)*%
X146130000Y-97440000D03*
%TO.P,A2,1,1/TX*%
%TO.N,Net-(A1-D0{slash}RX)*%
X146130000Y-99980000D03*
%TO.P,A2,0,0/RX*%
%TO.N,unconnected-(A2-0{slash}RX-Pad0)*%
X146130000Y-102520000D03*
%TD*%
D11*
%TO.P,R_PROP1,1,Pin_1*%
%TO.N,GND*%
X34000000Y-93460000D03*
D12*
%TO.P,R_PROP1,2,Pin_2*%
%TO.N,+5V*%
X34000000Y-96000000D03*
%TO.P,R_PROP1,3,Pin_3*%
%TO.N,Net-(A1-D11)*%
X34000000Y-98540000D03*
%TD*%
D11*
%TO.P,L_TRACK1,1,Pin_1*%
%TO.N,Net-(A1-D2)*%
X34000000Y-131540000D03*
D12*
%TO.P,L_TRACK1,2,Pin_2*%
%TO.N,Net-(A1-D3)*%
X34000000Y-129000000D03*
%TD*%
D15*
%TO.P,A1,1,NC*%
%TO.N,unconnected-(A1-NC-Pad1)*%
X88130000Y-100825000D03*
D16*
%TO.P,A1,2,IOREF*%
%TO.N,unconnected-(A1-IOREF-Pad2)*%
X88130000Y-103365000D03*
%TO.P,A1,3,~{RESET}*%
%TO.N,unconnected-(A1-~{RESET}-Pad3)*%
X88130000Y-105905000D03*
%TO.P,A1,4,3V3*%
%TO.N,unconnected-(A1-3V3-Pad4)*%
X88130000Y-108445000D03*
%TO.P,A1,5,+5V*%
%TO.N,+5V*%
X88130000Y-110985000D03*
%TO.P,A1,6,GND*%
%TO.N,GND*%
X88130000Y-113525000D03*
%TO.P,A1,7,GND*%
%TO.N,unconnected-(A1-GND-Pad7)*%
X88130000Y-116065000D03*
%TO.P,A1,8,VIN*%
%TO.N,unconnected-(A1-VIN-Pad8)*%
X88130000Y-118605000D03*
%TO.P,A1,9,A0*%
%TO.N,unconnected-(A1-A0-Pad9)*%
X88130000Y-123685000D03*
%TO.P,A1,10,A1*%
%TO.N,unconnected-(A1-A1-Pad10)*%
X88130000Y-126225000D03*
%TO.P,A1,11,A2*%
%TO.N,unconnected-(A1-A2-Pad11)*%
X88130000Y-128765000D03*
%TO.P,A1,12,A3*%
%TO.N,unconnected-(A1-A3-Pad12)*%
X88130000Y-131305000D03*
%TO.P,A1,13,SDA/A4*%
%TO.N,unconnected-(A1-SDA{slash}A4-Pad13)*%
X88130000Y-133845000D03*
%TO.P,A1,14,SCL/A5*%
%TO.N,unconnected-(A1-SCL{slash}A5-Pad14)*%
X88130000Y-136385000D03*
%TO.P,A1,15,D0/RX*%
%TO.N,Net-(A1-D0{slash}RX)*%
X39870000Y-136385000D03*
%TO.P,A1,16,D1/TX*%
%TO.N,unconnected-(A1-D1{slash}TX-Pad16)*%
X39870000Y-133845000D03*
%TO.P,A1,17,D2*%
%TO.N,Net-(A1-D2)*%
X39870000Y-131305000D03*
%TO.P,A1,18,D3*%
%TO.N,Net-(A1-D3)*%
X39870000Y-128765000D03*
%TO.P,A1,19,D4*%
%TO.N,unconnected-(A1-D4-Pad19)*%
X39870000Y-126225000D03*
%TO.P,A1,20,D5*%
%TO.N,unconnected-(A1-D5-Pad20)*%
X39870000Y-123685000D03*
%TO.P,A1,21,D6*%
%TO.N,Net-(A1-D6)*%
X39870000Y-121145000D03*
%TO.P,A1,22,D7*%
%TO.N,Net-(A1-D7)*%
X39870000Y-118605000D03*
%TO.P,A1,23,D8*%
%TO.N,unconnected-(A1-D8-Pad23)*%
X39870000Y-114545000D03*
%TO.P,A1,24,D9*%
%TO.N,unconnected-(A1-D9-Pad24)*%
X39870000Y-112005000D03*
%TO.P,A1,25,D10*%
%TO.N,Net-(A1-D10)*%
X39870000Y-109465000D03*
%TO.P,A1,26,D11*%
%TO.N,Net-(A1-D11)*%
X39870000Y-106925000D03*
%TO.P,A1,27,D12*%
%TO.N,unconnected-(A1-D12-Pad27)*%
X39870000Y-104385000D03*
%TO.P,A1,28,D13*%
%TO.N,unconnected-(A1-D13-Pad28)*%
X39870000Y-101845000D03*
%TO.P,A1,29,GND*%
%TO.N,GND*%
X39870000Y-99305000D03*
%TO.P,A1,30,AREF*%
%TO.N,unconnected-(A1-AREF-Pad30)*%
X39870000Y-96765000D03*
%TO.P,A1,31,SDA/A4*%
%TO.N,unconnected-(A1-SDA{slash}A4-Pad31)*%
X39870000Y-94225000D03*
%TO.P,A1,32,SCL/A5*%
%TO.N,unconnected-(A1-SCL{slash}A5-Pad32)*%
X39870000Y-91685000D03*
%TD*%
D11*
%TO.P,R_TRACK1,1,Pin_1*%
%TO.N,Net-(A1-D7)*%
X34000000Y-118460000D03*
D12*
%TO.P,R_TRACK1,2,Pin_2*%
%TO.N,Net-(A1-D6)*%
X34000000Y-121000000D03*
%TD*%
D11*
%TO.P,PUMPS1,1,Pin_1*%
%TO.N,Net-(PUMPS1-Pin_1)*%
X131200000Y-142975000D03*
D12*
%TO.P,PUMPS1,2,Pin_2*%
%TO.N,Net-(PUMPS1-Pin_2)*%
X133740000Y-142975000D03*
%TO.P,PUMPS1,3,Pin_3*%
%TO.N,GND*%
X136280000Y-142975000D03*
%TO.P,PUMPS1,4,Pin_4*%
%TO.N,+5V*%
X138820000Y-142975000D03*
%TD*%
D11*
%TO.P,ACTUATOR1,1,Pin_1*%
%TO.N,Net-(ACTUATOR1-Pin_1)*%
X118460000Y-143000000D03*
D12*
%TO.P,ACTUATOR1,2,Pin_2*%
%TO.N,Net-(ACTUATOR1-Pin_2)*%
X121000000Y-143000000D03*
%TD*%
D17*
%TO.N,GND*%
X111549000Y-142073826D02*
X110540000Y-143082826D01*
X111549000Y-132594484D02*
X111549000Y-142073826D01*
X134991000Y-130991000D02*
X134000000Y-130000000D01*
X114143484Y-130000000D02*
X111549000Y-132594484D01*
X134991000Y-141686000D02*
X134991000Y-130991000D01*
X136280000Y-142975000D02*
X134991000Y-141686000D01*
X134000000Y-130000000D02*
X114143484Y-130000000D01*
%TO.N,+5V*%
X137645000Y-144150000D02*
X138820000Y-142975000D01*
X114147174Y-144150000D02*
X137645000Y-144150000D01*
X113080000Y-143082826D02*
X114147174Y-144150000D01*
%TO.N,GND*%
X103000000Y-146000000D02*
X103000000Y-145000000D01*
X109000000Y-146000000D02*
X103000000Y-146000000D01*
X102950000Y-144950000D02*
X102950000Y-135540000D01*
X110540000Y-144460000D02*
X109000000Y-146000000D01*
X110540000Y-143082826D02*
X110540000Y-144460000D01*
X103000000Y-145000000D02*
X102950000Y-144950000D01*
%TO.N,Net-(VALVE1-Pin_2)*%
X108000000Y-143082826D02*
X108000000Y-135570000D01*
X108000000Y-135570000D02*
X108030000Y-135540000D01*
%TO.N,Net-(VALVE1-Pin_1)*%
X105460000Y-135570000D02*
X105490000Y-135540000D01*
X105460000Y-143082826D02*
X105460000Y-135570000D01*
%TO.N,+5V*%
X146000000Y-135670000D02*
X146130000Y-135540000D01*
%TO.N,Net-(A1-D6)*%
X39725000Y-121000000D02*
X39870000Y-121145000D01*
X34000000Y-121000000D02*
X39725000Y-121000000D01*
%TO.N,Net-(A1-D2)*%
X39635000Y-131540000D02*
X39870000Y-131305000D01*
X34000000Y-131540000D02*
X39635000Y-131540000D01*
%TO.N,Net-(A1-D3)*%
X34000000Y-129000000D02*
X39635000Y-129000000D01*
X39635000Y-129000000D02*
X39870000Y-128765000D01*
%TO.N,Net-(A1-D11)*%
X34000000Y-98540000D02*
X34000000Y-101055000D01*
X34000000Y-101055000D02*
X39870000Y-106925000D01*
%TO.N,Net-(A1-D7)*%
X34000000Y-118460000D02*
X39725000Y-118460000D01*
X39725000Y-118460000D02*
X39870000Y-118605000D01*
%TO.N,+5V*%
X87710000Y-110565000D02*
X88130000Y-110985000D01*
X152000000Y-127130000D02*
X146130000Y-133000000D01*
X152000000Y-97000000D02*
X152000000Y-127130000D01*
X138820000Y-142975000D02*
X146130000Y-135665000D01*
X90000000Y-109115000D02*
X90000000Y-84990000D01*
X90000000Y-84990000D02*
X97870000Y-77120000D01*
X32000000Y-104000000D02*
X34000000Y-106000000D01*
X88130000Y-110985000D02*
X90000000Y-109115000D01*
X32000000Y-98000000D02*
X32000000Y-104000000D01*
X34000000Y-106000000D02*
X38565000Y-110565000D01*
X38565000Y-110565000D02*
X87710000Y-110565000D01*
X34000000Y-96000000D02*
X32000000Y-98000000D01*
X138820000Y-142850000D02*
X138820000Y-142975000D01*
X146130000Y-135665000D02*
X146130000Y-135540000D01*
%TO.N,Net-(A1-D10)*%
X34000000Y-103460000D02*
X39870000Y-109330000D01*
X39870000Y-109330000D02*
X39870000Y-109465000D01*
%TO.N,Net-(A1-D0{slash}RX)*%
X94892742Y-121000000D02*
X96892742Y-119000000D01*
X55255000Y-121000000D02*
X94892742Y-121000000D01*
X39870000Y-136385000D02*
X55255000Y-121000000D01*
X127110000Y-119000000D02*
X146130000Y-99980000D01*
X96892742Y-119000000D02*
X127110000Y-119000000D01*
%TO.N,JOYSTICK_RIGHT_Y*%
X147214000Y-76680000D02*
X146130000Y-75596000D01*
X152000000Y-76680000D02*
X147214000Y-76680000D01*
%TO.N,ACTUATOR_SIGNAL*%
X151560000Y-89820000D02*
X152000000Y-89380000D01*
X146130000Y-89820000D02*
X151560000Y-89820000D01*
%TO.N,CH6_SIGNAL*%
X151560000Y-84740000D02*
X152000000Y-84300000D01*
X146130000Y-84740000D02*
X151560000Y-84740000D01*
%TO.N,JOYSTICK_LEFT_X*%
X152000000Y-81760000D02*
X150916000Y-80676000D01*
X150916000Y-80676000D02*
X146130000Y-80676000D01*
%TO.N,JOYSTICK_LEFT_Y*%
X152000000Y-79220000D02*
X147214000Y-79220000D01*
X147214000Y-79220000D02*
X146130000Y-78136000D01*
%TO.N,Net-(PUMPS1-Pin_1)*%
X131200000Y-135850000D02*
X130890000Y-135540000D01*
X131200000Y-142975000D02*
X131200000Y-135850000D01*
%TO.N,PUMP_SIGNAL*%
X152000000Y-86840000D02*
X146570000Y-86840000D01*
X146570000Y-86840000D02*
X146130000Y-87280000D01*
%TO.N,Net-(PUMPS1-Pin_2)*%
X133740000Y-135850000D02*
X133430000Y-135540000D01*
X133740000Y-142975000D02*
X133740000Y-135850000D01*
%TO.N,JOYSTICK_RIGHT_X*%
X147214000Y-74140000D02*
X146130000Y-73056000D01*
X152000000Y-74140000D02*
X147214000Y-74140000D01*
%TO.N,GND*%
X154000000Y-73306000D02*
X154000000Y-89920000D01*
X34000000Y-108540000D02*
X31000000Y-105540000D01*
X31000000Y-95000000D02*
X32540000Y-93460000D01*
X32540000Y-93460000D02*
X34000000Y-93460000D01*
X34025000Y-93460000D02*
X34000000Y-93460000D01*
X154000000Y-89920000D02*
X152000000Y-91920000D01*
X92000000Y-111000000D02*
X89475000Y-113525000D01*
X39870000Y-99305000D02*
X34025000Y-93460000D01*
X31000000Y-105540000D02*
X31000000Y-95000000D01*
X89475000Y-113525000D02*
X88130000Y-113525000D01*
X97870000Y-82200000D02*
X92000000Y-88070000D01*
X146130000Y-65436000D02*
X154000000Y-73306000D01*
X92000000Y-88070000D02*
X92000000Y-111000000D01*
%TO.N,Net-(ACTUATOR1-Pin_2)*%
X120730000Y-135540000D02*
X120730000Y-142730000D01*
X120730000Y-142730000D02*
X121000000Y-143000000D01*
%TO.N,Net-(ACTUATOR1-Pin_1)*%
X118460000Y-135810000D02*
X118190000Y-135540000D01*
X118460000Y-143000000D02*
X118460000Y-135810000D01*
%TD*%
M02*
