M48
; DRILL file {KiCad 8.0.3} date 2024-07-17T21:44:39+0800
; FORMAT={-:-/ absolute / inch / decimal}
; #@! TF.CreationDate,2024-07-17T21:44:39+08:00
; #@! TF.GenerationSoftware,Kicad,Pcbnew,8.0.3
; #@! TF.FileFunction,Plated,1,2,PTH
FMAT,2
INCH
; #@! TA.AperFunction,Plated,PTH,ComponentDrill
T1C0.0335
; #@! TA.AperFunction,Plated,PTH,ComponentDrill
T2C0.0394
%
G90
G05
T1
X3.8531Y-2.6362
X3.8531Y-2.7362
X3.8531Y-2.8362
X3.8531Y-2.9362
X3.8531Y-3.0362
X3.8531Y-3.1362
X3.8531Y-3.2362
X3.8531Y-3.3362
X3.8531Y-3.5362
X3.8531Y-3.6362
X3.8531Y-3.7362
X3.8531Y-3.8362
X3.8531Y-3.9362
X3.8531Y-4.0362
X3.8531Y-4.1362
X3.8531Y-4.2362
X3.8531Y-4.4362
X3.8531Y-4.5362
X3.8531Y-4.6362
X3.8531Y-4.7362
X3.8531Y-4.8362
X3.8531Y-4.9362
X3.8531Y-5.0262
X3.8531Y-5.1262
X4.0531Y-5.2362
X4.0531Y-5.3362
X4.1531Y-5.2362
X4.1531Y-5.3362
X4.2531Y-5.2362
X4.2531Y-5.3362
X4.3531Y-5.2362
X4.3531Y-5.3362
X4.4531Y-5.2362
X4.4531Y-5.3362
X4.5531Y-5.2362
X4.5531Y-5.3362
X4.6531Y-5.2362
X4.6531Y-5.3362
X4.7531Y-5.2362
X4.7531Y-5.3362
X4.8531Y-5.2362
X4.8531Y-5.3362
X4.9531Y-5.2362
X4.9531Y-5.3362
X5.0531Y-5.2362
X5.0531Y-5.3362
X5.1531Y-5.2362
X5.1531Y-5.3362
X5.2531Y-5.2362
X5.2531Y-5.3362
X5.3531Y-5.2362
X5.3531Y-5.3362
X5.4531Y-5.2362
X5.4531Y-5.3362
X5.5531Y-5.2362
X5.5531Y-5.3362
X5.6531Y-5.2362
X5.6531Y-5.3362
X5.7531Y-2.2762
X5.7531Y-2.3762
X5.7531Y-2.4762
X5.7531Y-2.5762
X5.7531Y-2.6762
X5.7531Y-2.7762
X5.7531Y-2.8762
X5.7531Y-2.9762
X5.7531Y-3.0762
X5.7531Y-3.1762
X5.7531Y-3.3362
X5.7531Y-3.4362
X5.7531Y-3.5362
X5.7531Y-3.6362
X5.7531Y-3.7362
X5.7531Y-3.8362
X5.7531Y-3.9362
X5.7531Y-4.0362
X5.7531Y-4.2362
X5.7531Y-4.3362
X5.7531Y-4.4362
X5.7531Y-4.5362
X5.7531Y-4.6362
X5.7531Y-4.7362
X5.7531Y-4.8362
X5.7531Y-4.9362
X5.7531Y-5.2362
X5.7531Y-5.3362
T2
X1.3386Y-3.6795
X1.3386Y-3.7795
X1.3386Y-3.8795
X1.3386Y-4.0732
X1.3386Y-4.1732
X1.3386Y-4.2732
X1.3386Y-4.6638
X1.3386Y-4.7638
X1.3386Y-5.0787
X1.3386Y-5.1787
X1.5697Y-3.6096
X1.5697Y-3.7096
X1.5697Y-3.8096
X1.5697Y-3.9096
X1.5697Y-4.0096
X1.5697Y-4.1096
X1.5697Y-4.2096
X1.5697Y-4.3096
X1.5697Y-4.4096
X1.5697Y-4.5096
X1.5697Y-4.6695
X1.5697Y-4.7695
X1.5697Y-4.8695
X1.5697Y-4.9695
X1.5697Y-5.0695
X1.5697Y-5.1695
X1.5697Y-5.2695
X1.5697Y-5.3695
X3.4697Y-3.9695
X3.4697Y-4.0695
X3.4697Y-4.1695
X3.4697Y-4.2695
X3.4697Y-4.3695
X3.4697Y-4.4695
X3.4697Y-4.5695
X3.4697Y-4.6695
X3.4697Y-4.8695
X3.4697Y-4.9695
X3.4697Y-5.0695
X3.4697Y-5.1695
X3.4697Y-5.2695
X3.4697Y-5.3695
X4.152Y-5.6332
X4.252Y-5.6332
X4.352Y-5.6332
X4.452Y-5.6332
X4.6638Y-5.6299
X4.7638Y-5.6299
X5.1654Y-5.6289
X5.2654Y-5.6289
X5.3654Y-5.6289
X5.4654Y-5.6289
X5.9843Y-2.9189
X5.9843Y-3.0189
X5.9843Y-3.1189
X5.9843Y-3.2189
X5.9843Y-3.3189
X5.9843Y-3.4189
X5.9843Y-3.5189
X5.9843Y-3.6189
X5.9843Y-3.7189
X5.9843Y-3.8189
M30
